<svg width="31" height="31" viewBox="0 0 31 31" fill="none" xmlns="http://www.w3.org/2000/svg">
<rect width="31" height="31" rx="5" fill="#C05E5E"/>
<path d="M22.3906 6.625H18.7812V5.96875C18.7812 4.88319 17.8981 4 16.8125 4H14.1875C13.1019 4 12.2188 4.88319 12.2188 5.96875V6.625H8.60938C7.70473 6.625 6.96875 7.36098 6.96875 8.26562V10.5625C6.96875 10.9249 7.26259 11.2188 7.625 11.2188H7.98364L8.5506 23.1249C8.60068 24.1764 9.46447 25 10.5171 25H20.4829C21.5356 25 22.3994 24.1764 22.4494 23.1249L23.0164 11.2188H23.375C23.7374 11.2188 24.0312 10.9249 24.0312 10.5625V8.26562C24.0312 7.36098 23.2953 6.625 22.3906 6.625ZM13.5312 5.96875C13.5312 5.60691 13.8257 5.3125 14.1875 5.3125H16.8125C17.1743 5.3125 17.4688 5.60691 17.4688 5.96875V6.625H13.5312V5.96875ZM8.28125 8.26562C8.28125 8.0847 8.42846 7.9375 8.60938 7.9375H22.3906C22.5715 7.9375 22.7188 8.0847 22.7188 8.26562V9.90625C22.5165 9.90625 9.11932 9.90625 8.28125 9.90625V8.26562ZM21.1384 23.0625C21.1217 23.4129 20.8338 23.6875 20.4829 23.6875H10.5171C10.1662 23.6875 9.87828 23.4129 9.86162 23.0625L9.29762 11.2188H21.7024L21.1384 23.0625Z" fill="#FCF6F6"/>
<path d="M15.5 22.375C15.8624 22.375 16.1562 22.0812 16.1562 21.7188V13.1875C16.1562 12.8251 15.8624 12.5312 15.5 12.5312C15.1376 12.5312 14.8438 12.8251 14.8438 13.1875V21.7188C14.8438 22.0812 15.1375 22.375 15.5 22.375Z" fill="#FCF6F6"/>
<path d="M18.7812 22.375C19.1437 22.375 19.4375 22.0812 19.4375 21.7188V13.1875C19.4375 12.8251 19.1437 12.5312 18.7812 12.5312C18.4188 12.5312 18.125 12.8251 18.125 13.1875V21.7188C18.125 22.0812 18.4188 22.375 18.7812 22.375Z" fill="#FCF6F6"/>
<path d="M12.2188 22.375C12.5812 22.375 12.875 22.0812 12.875 21.7188V13.1875C12.875 12.8251 12.5812 12.5312 12.2188 12.5312C11.8563 12.5312 11.5625 12.8251 11.5625 13.1875V21.7188C11.5625 22.0812 11.8563 22.375 12.2188 22.375Z" fill="#FCF6F6"/>
</svg>
