<svg width="31" height="31" viewBox="0 0 31 31" fill="none" xmlns="http://www.w3.org/2000/svg">
<rect width="31" height="31" rx="5" fill="#E4A648"/>
<path d="M22.8137 6.65674C21.7199 5.56494 19.9488 5.56494 18.8551 6.65674L17.8641 7.65308L7.3159 18.1957L7.29348 18.2183C7.28805 18.2237 7.28805 18.2295 7.28227 18.2295C7.27107 18.2463 7.25425 18.263 7.24322 18.2798C7.24322 18.2854 7.23744 18.2854 7.23744 18.291C7.22623 18.3078 7.2208 18.319 7.20942 18.3358C7.20399 18.3414 7.20399 18.3469 7.19839 18.3526C7.19278 18.3695 7.18718 18.3807 7.1814 18.3975C7.1814 18.4029 7.17597 18.4029 7.17597 18.4087L4.83563 25.4463C4.76698 25.6467 4.81917 25.8686 4.96996 26.0173C5.07592 26.1218 5.21883 26.1803 5.36752 26.1798C5.42829 26.1788 5.48854 26.1693 5.54668 26.1518L12.5789 23.8058C12.5843 23.8058 12.5843 23.8058 12.5901 23.8004C12.6078 23.7952 12.6248 23.7876 12.6404 23.7778C12.6448 23.7773 12.6486 23.7754 12.6518 23.7724C12.6684 23.7612 12.6908 23.7498 12.7076 23.7386C12.7243 23.7276 12.7413 23.7107 12.7581 23.6995C12.7637 23.6938 12.7691 23.6938 12.7691 23.6883C12.7749 23.6827 12.7861 23.6773 12.7917 23.6659L24.3309 12.1267C25.4226 11.033 25.4226 9.26188 24.3309 8.16833L22.8137 6.65674ZM12.3997 22.49L8.50297 18.5935L18.2561 8.84033L22.1529 12.7369L12.3997 22.49ZM7.95409 19.6292L11.3584 23.0333L6.24652 24.7353L7.95409 19.6292ZM23.5415 11.3428L22.948 11.942L19.051 8.04504L19.6504 7.44607C20.3059 6.79107 21.3684 6.79107 22.0241 7.44607L23.5469 8.96888C24.1976 9.62739 24.1951 10.6875 23.5415 11.3428Z" fill="#FFFAFA"/>
</svg>
