<svg width="25" height="25" viewBox="0 0 25 25" fill="none" xmlns="http://www.w3.org/2000/svg">
<g clip-path="url(#clip0)">
<path d="M22.6994 3.13806H2.30063C1.03208 3.13806 0 4.17009 0 5.44026C0 6.70881 1.03208 7.74089 2.30063 7.74089H22.6994C23.9679 7.74089 25 6.70881 25 5.44026C25 4.17009 23.9679 3.13806 22.6994 3.13806Z" fill="#2D2F44"/>
<path d="M22.6994 10.1986H2.30063C1.03208 10.1986 0 11.2306 0 12.5008C0 13.7693 1.03208 14.8014 2.30063 14.8014H22.6994C23.9679 14.8014 25 13.7693 25 12.5008C25 11.2306 23.9679 10.1986 22.6994 10.1986Z" fill="#2D2F44"/>
<path d="M22.6994 17.2592H2.30063C1.03208 17.2592 0 18.2912 0 19.5614C0 20.8299 1.03208 21.862 2.30063 21.862H22.6994C23.9679 21.862 25 20.8299 25 19.5614C25 18.2912 23.9679 17.2592 22.6994 17.2592Z" fill="#2D2F44"/>
</g>
<defs>
<clipPath id="clip0">
<rect width="25" height="25" fill="white"/>
</clipPath>
</defs>
</svg>
