<svg width="26" height="25" viewBox="0 0 26 25" fill="none" xmlns="http://www.w3.org/2000/svg">
<path d="M25.1709 22.771L18.8764 16.5827C20.4948 14.7641 21.3816 12.4759 21.3816 10.0937C21.3816 4.52814 16.5913 0 10.7035 0C4.81575 0 0.0254822 4.52814 0.0254822 10.0937C0.0254822 15.6593 4.81575 20.1875 10.7035 20.1875C12.9139 20.1875 15.0203 19.5573 16.8211 18.361L23.1634 24.5963C23.4285 24.8565 23.7851 25 24.1672 25C24.5288 25 24.8719 24.8697 25.1324 24.6327C25.6858 24.1293 25.7034 23.2946 25.1709 22.771ZM10.7035 2.63315C15.0555 2.63315 18.596 5.97988 18.596 10.0937C18.596 14.2076 15.0555 17.5543 10.7035 17.5543C6.35153 17.5543 2.81106 14.2076 2.81106 10.0937C2.81106 5.97988 6.35153 2.63315 10.7035 2.63315Z" fill="#FAF6F6"/>
</svg>
